<svg width="117" height="106" viewBox="0 0 117 106" fill="none" xmlns="http://www.w3.org/2000/svg">
<path d="M107.5 92C107.5 93.0952 106.606 94.5474 103.938 96.1674C101.36 97.7332 97.5299 99.1967 92.6641 100.447C82.9553 102.941 69.4616 104.5 54.5 104.5C39.5384 104.5 26.0447 102.941 16.3359 100.447C11.4701 99.1967 7.63967 97.7332 5.06153 96.1674C2.39415 94.5474 1.5 93.0952 1.5 92C1.5 90.9048 2.39415 89.4526 5.06153 87.8326C7.63967 86.2668 11.4701 84.8033 16.3359 83.5533C26.0447 81.0593 39.5384 79.5 54.5 79.5C69.4616 79.5 82.9553 81.0593 92.6641 83.5533C97.5299 84.8033 101.36 86.2668 103.938 87.8326C106.606 89.4526 107.5 90.9048 107.5 92Z" stroke="black" stroke-width="3"/>
<path d="M115.5 92C115.5 93.0885 114.601 94.5412 111.904 96.1642C109.3 97.7313 105.433 99.1956 100.521 100.446C90.7203 102.941 77.1005 104.5 62 104.5C46.8995 104.5 33.2797 102.941 23.4791 100.446C18.5675 99.1956 14.6996 97.7313 12.0956 96.1642C9.39873 94.5412 8.5 93.0885 8.5 92C8.5 90.9115 9.39873 89.4588 12.0956 87.8358C14.6996 86.2687 18.5675 84.8044 23.4791 83.5542C33.2797 81.0595 46.8995 79.5 62 79.5C77.1005 79.5 90.7203 81.0595 100.521 83.5542C105.433 84.8044 109.3 86.2687 111.904 87.8358C114.601 89.4588 115.5 90.9115 115.5 92Z" stroke="black" stroke-width="3"/>
<path d="M47.276 2.66726L47.2761 2.66728C52.015 3.29338 56.915 6.00207 61.6328 10.2482C66.3415 14.4862 70.8032 20.1978 74.6608 26.6998C82.385 39.7191 87.5966 55.7507 87.5966 69.1517C87.5966 85.3293 72.1302 98.6365 55.1821 98.6365C38.2823 98.6365 24.0985 85.3846 24.0985 69.1517C24.0985 58.111 29.7193 49.8582 34.8909 42.2649C35.2915 41.6767 35.6893 41.0926 36.0817 40.5114C38.7786 36.5163 41.2448 32.6095 42.3196 28.5736C43.4141 24.4638 43.06 20.2526 40.2365 15.7082C40.2606 15.7468 40.0152 15.289 39.6495 14.7897C39.2707 14.2727 38.7036 13.6158 37.9357 13.0517C37.1634 12.4846 36.1753 12.0027 34.9725 11.8681C33.7644 11.7329 32.4095 11.9559 30.923 12.692C28.9108 13.6883 25.9349 12.8198 24.4511 10.7998C24.3203 10.6217 24.2211 10.4088 24.1611 10.1755C23.7649 8.63287 24.0973 7.38573 24.7891 6.36635C25.5022 5.31554 26.6216 4.47884 27.8009 3.89392C30.5496 2.53068 34.8252 1.02002 47.276 2.66726Z" fill="url(#paint0_linear_557_1621)" stroke="#091320" stroke-width="2"/>
<path d="M64.8509 51.3278L62.4179 46.5088C62.2586 46.1935 62.0472 45.9038 61.7962 45.6552C61.1878 45.0526 60.3604 44.709 59.5041 44.709C58.6478 44.709 57.8204 45.0526 57.2119 45.6552C56.9609 45.9038 56.7495 46.1935 56.5903 46.5088L54.1573 51.3278L50.302 58.9637C50.2002 59.1653 50.1472 59.388 50.1472 59.6139C50.1472 60.2056 50.5085 60.7372 51.0585 60.9551L56.0623 62.9373C56.5628 63.1355 56.9916 63.4807 57.2922 63.9272C58.349 65.4971 60.6592 65.4971 61.716 63.9272C62.0166 63.4807 62.4453 63.1355 62.9458 62.9373L67.9496 60.9551C68.4997 60.7372 68.861 60.2056 68.861 59.6139C68.861 59.388 68.8079 59.1653 68.7061 58.9637L64.8509 51.3278Z" fill="#193558" stroke="#0E1C2E" stroke-width="3"/>
<path d="M56.8881 46.406L49.4083 60.1666C49.188 60.5719 48.719 60.774 48.2731 60.6556L34.9536 57.12C34.5735 57.0191 34.2879 56.7049 34.2236 56.317L31.5098 39.9425C31.4613 39.6498 31.5453 39.3507 31.739 39.126L37.9754 31.8939C38.2016 31.6315 38.5475 31.5049 38.8897 31.5593L53.4122 33.8678C53.4642 33.876 53.5167 33.8802 53.5692 33.8802H66.3125C66.3784 33.8802 66.4442 33.8737 66.5089 33.8607L77.9649 31.5663C78.266 31.506 78.5782 31.5875 78.8115 31.7872L87.455 39.1862C87.6735 39.3733 87.8009 39.6455 87.8046 39.9332L88.0112 56.1412C88.0172 56.6149 87.6902 57.0277 87.2278 57.1303L71.1927 60.6859C70.7399 60.7863 70.2775 60.5622 70.0758 60.1445L63.4563 46.4381C63.3508 46.2198 63.1696 46.0472 62.9465 45.9524L60.5644 44.9415C60.3147 44.8355 60.0327 44.8355 59.783 44.9415L57.376 45.9631C57.168 46.0513 56.996 46.2075 56.8881 46.406Z" fill="url(#paint1_linear_557_1621)" fill-opacity="0.65" stroke="#091320" stroke-width="6"/>
<path d="M57.7257 75.7365L56.6816 76.7705C55.879 77.5653 55.4275 78.6479 55.4275 79.7775C55.4275 80.907 55.879 81.9896 56.6816 82.7845L57.7257 83.8184C58.5369 84.6218 59.6325 85.0725 60.7743 85.0725C61.916 85.0725 63.0116 84.6218 63.8229 83.8184L64.867 82.7845C65.6695 81.9896 66.1211 80.907 66.1211 79.7775C66.1211 78.6479 65.6695 77.5653 64.867 76.7705L63.8229 75.7365C63.0116 74.9331 61.916 74.4824 60.7743 74.4824C59.6325 74.4824 58.5369 74.9331 57.7257 75.7365Z" fill="#091320" stroke="#091320"/>
<path d="M61.9133 75.292L61.7612 75.1978C60.6465 74.5083 59.1929 74.7556 58.3689 75.775L56.9272 77.5587C56.1032 78.5781 54.6496 78.8254 53.5349 78.1359L32.4175 65.0726L28.0922 61.5052C25.3044 59.2058 23.4489 55.9703 22.8723 52.403L22.5785 50.5857C22.4099 49.543 22.3252 48.4885 22.3252 47.4322V38.3168V27.6145V20.4796V19.0747C22.3252 17.8803 21.357 16.9121 20.1626 16.9121C18.9682 16.9121 18 17.8803 18 19.0747V20.4796V27.6145V36.5331V41.8842V47.2354L18.4739 51.3392C19.1004 56.7649 21.5571 61.8151 25.4389 65.6572C26.2456 66.4557 27.1079 67.1959 28.0192 67.8724L33.8592 72.2075L39.6262 75.775L45.3932 79.3424L48.2767 81.1262C50.1958 82.3133 52.2085 83.3422 54.2947 84.2026L55.4854 84.6936L57.4589 85.5075C58.9359 86.1166 60.6155 85.9795 61.9741 85.139L62.0606 85.0856C62.48 84.8261 62.8525 84.4977 63.1625 84.1142C63.7923 83.335 64.1359 82.3633 64.1359 81.3614V80.6081C64.1359 79.7721 63.9749 78.944 63.6617 78.169L63.0382 76.6263C62.8147 76.0732 62.4206 75.6058 61.9133 75.292Z" fill="url(#paint2_linear_557_1621)" stroke="#0E1D31" stroke-width="2"/>
<defs>
<linearGradient id="paint0_linear_557_1621" x1="78.466" y1="50.3047" x2="30.4086" y2="87.7475" gradientUnits="userSpaceOnUse">
<stop stop-color="white"/>
<stop offset="0.552083" stop-color="#55AAC9"/>
<stop offset="1" stop-color="#193558"/>
</linearGradient>
<linearGradient id="paint1_linear_557_1621" x1="59.9415" y1="59.3485" x2="59.7064" y2="32.9158" gradientUnits="userSpaceOnUse">
<stop offset="0.380208" stop-color="#0E1123"/>
<stop offset="1" stop-color="#206B86"/>
</linearGradient>
<linearGradient id="paint2_linear_557_1621" x1="64.1359" y1="70.1295" x2="11.7508" y2="54.3377" gradientUnits="userSpaceOnUse">
<stop stop-color="#92E2C8"/>
<stop offset="1" stop-color="#0D4432"/>
</linearGradient>
</defs>
</svg>
